Coordinates
version=1
nRows=7
nColumns=63
inDegrees=yes

Units are S.I. units (second, meters, Newtons, ...)
If the header above contains a line with 'inDegrees', this indicates whether rotational values are in degrees (yes) or radians (no).

endheader
time	pelvis_tilt	pelvis_list	pelvis_rotation	pelvis_tx	pelvis_ty	pelvis_tz	hip_flexion_r	hip_adduction_r	hip_rotation_r	knee_angle_r	knee_angle_r_beta	ankle_angle_r	subtalar_angle_r	mtp_angle_r	hip_flexion_l	hip_adduction_l	hip_rotation_l	knee_angle_l	knee_angle_l_beta	ankle_angle_l	subtalar_angle_l	mtp_angle_l	L5_S1_Flex_Ext	L5_S1_Lat_Bending	L5_S1_axial_rotation	L4_L5_Flex_Ext	L4_L5_Lat_Bending	L4_L5_axial_rotation	L3_L4_Flex_Ext	L3_L4_Lat_Bending	L3_L4_axial_rotation	L2_L3_Flex_Ext	L2_L3_Lat_Bending	L2_L3_axial_rotation	L1_L2_Flex_Ext	L1_L2_Lat_Bending	L1_L2_axial_rotation	L1_T12_Flex_Ext	L1_T12_Lat_Bending	L1_T12_axial_rotation	Abs_r3	Abs_r2	Abs_r1	Abs_t1	Abs_t2	neck_flexion	neck_bending	neck_rotation	arm_flex_r	arm_add_r	arm_rot_r	elbow_flex_r	pro_sup_r	wrist_flex_r	wrist_dev_r	arm_flex_l	arm_add_l	arm_rot_l	elbow_flex_l	pro_sup_l	wrist_flex_l	wrist_dev_l
      5.75000000	     -3.15137128	    -12.70730441	     70.84968940	      0.28700700	      0.78831227	      0.79585807	     18.54023842	      5.55490968	     22.63591257	     28.83914809	      0.50333809	     32.34067568	     -8.97890523	      0.00000000	      8.28837323	     -0.44807750	    -32.62180445	     14.94621064	      0.26086059	     39.77947194	     11.35346230	      0.00000000	      0.16384146	     -0.57192337	      1.77369548	      0.30426997	     -0.76065808	      1.88455145	      0.26917513	     -1.39057448	      1.88455145	      0.18725440	     -1.39057448	      1.55198355	      0.15214318	     -1.16626613	      1.44112758	      0.09361901	     -0.88590930	      1.33027161	      1.17030313	     -6.46971153	      9.86476216	      0.00000000	      0.00000000	     23.81055593	     -0.89246773	    -30.58206054	     42.20524540	    -45.84200694	     10.52525839	     36.27269061	     40.79695665	     -7.98563873	      7.12086955	     73.52536203	     -4.91381961	    131.06861760	      3.48655767	      1.29644690	     -4.98108032	     -5.93911071
      5.76666667	     -3.51710190	    -13.00965406	     70.75360951	      0.28677616	      0.78813224	      0.79607485	     18.80839395	      5.20522050	     22.68043874	     28.73076880	      0.50144651	     32.16366547	     -8.96579339	      0.00000000	      8.44387141	     -0.05013976	    -32.99934458	     14.36166819	      0.25065840	     39.75750816	     12.00869345	      0.00000000	      0.20901919	     -0.58936198	      1.24029468	      0.38816954	     -0.78385144	      1.31781310	      0.34339763	     -1.43297473	      1.31781310	      0.23888803	     -1.43297473	      1.08525785	      0.19409522	     -1.20182696	      1.00773943	      0.11943357	     -0.91292171	      0.93022101	      1.49300317	     -6.66698064	      6.89814694	      0.00000000	      0.00000000	     24.68255957	      0.32215236	    -27.81888814	     45.10322593	    -40.40942146	      9.78776214	     35.91340886	     56.91014955	     -9.63069768	     10.50194692	     60.37923788	    -16.98806331	     36.30459146	     37.66723833	     71.74495478	    -12.44292968	     11.87095034
      5.78333333	     -3.15040738	    -12.64312923	     70.97040958	      0.28477154	      0.78965171	      0.79649148	     18.09981143	      5.07951062	     22.20143528	     28.33275514	      0.49449986	     31.74979917	     -8.68419168	      0.00000000	      7.77815119	     -0.00565250	    -32.95698419	     13.83188181	      0.24141188	     39.65363501	     12.28770385	      0.00000000	      0.16348078	     -0.56327551	      1.09181679	      0.30360015	     -0.74915643	      1.16005533	      0.26858257	     -1.36954808	      1.16005533	      0.18684218	     -1.36954808	      0.95533969	      0.15180825	     -1.14863142	      0.88710114	      0.09341292	     -0.87251377	      0.81886259	      1.16772685	     -6.37188524	      6.07235741	      0.00000000	      0.00000000	     23.85145330	      1.69120987	    -26.72179362	     45.31531141	    -37.09109194	      7.07035099	     36.65578424	     70.32990198	    -10.62005027	     13.95914321	     57.70070009	    -17.92259518	     35.12314762	     41.79571899	     68.81163680	    -10.79913687	     11.54529792
      5.80000000	     -2.85516664	    -12.17842719	     71.28131983	      0.28274720	      0.79114138	      0.79620168	     17.30138727	      4.86137554	     21.73928140	     28.02026815	      0.48904594	     31.32572016	     -8.67706769	      0.00000000	      6.97668078	      0.17777133	    -32.86743395	     13.27201863	      0.23164042	     39.38800263	     12.55729823	      0.00000000	      0.11899899	     -0.54948359	      0.85175114	      0.22099303	     -0.73081317	      0.90498559	      0.19550345	     -1.33601440	      0.90498559	      0.13600395	     -1.33601440	      0.74528225	      0.11050247	     -1.12050693	      0.69204780	      0.06799603	     -0.85115008	      0.63881336	      0.84999792	     -6.21586824	      4.73718434	      0.00000000	      0.00000000	     22.85987037	      3.25007225	    -25.25288588	     45.12055948	    -34.41018006	      7.74719758	     38.44879079	     74.46356012	    -12.26398136	     15.63867438	     54.40341082	    -19.17846464	     33.00487138	     46.47314016	     66.64644945	     -8.73419281	     10.93101379
      5.81666667	     -2.40158255	    -11.75627176	     71.58959848	      0.28108290	      0.79251821	      0.79518284	     16.38065549	      4.81072550	     21.27804294	     27.52337826	      0.48037357	     30.89103836	     -8.50928823	      0.00000000	      6.14016052	      0.14747225	    -32.81544593	     12.82576675	      0.22385186	     39.05999627	     12.72207549	      0.00000000	      0.08222547	     -0.50661791	      0.63484958	      0.15270092	     -0.67380182	      0.67452768	      0.13508823	     -1.23179078	      0.67452768	      0.09397549	     -1.23179078	      0.55549339	      0.07635457	     -1.03309524	      0.51581529	      0.04698363	     -0.78475114	      0.47613719	      0.58732831	     -5.73096309	      3.53084293	      0.00000000	      0.00000000	     21.83290359	      4.34179837	    -23.37565083	     43.05269135	    -31.41784711	      4.31028912	     42.28287305	     81.58033000	    -11.41823732	     16.93577057	     51.08437169	    -20.42488373	     31.49038519	     51.27026059	     65.46799161	     -6.29179892	     10.64289289
      5.83333333	     -2.13743521	    -11.39386807	     71.88628312	      0.27977278	      0.79339883	      0.79381033	     15.67199734	      4.68043204	     20.88992940	     27.25868530	      0.47575381	     30.62681856	     -8.49896760	      0.00000000	      5.38339305	      0.25634493	    -32.84315845	     12.38841607	      0.21621865	     38.59271624	     12.82614026	      0.00000000	      0.05672503	     -0.48570119	      0.46551806	      0.10534406	     -0.64598258	      0.49461294	      0.09319356	     -1.18093387	      0.49461294	      0.06483104	     -1.18093387	      0.40732830	      0.05267486	     -0.99044186	      0.37823342	      0.03241268	     -0.75235114	      0.34913854	      0.40518123	     -5.49434898	      2.58907178	      0.00000000	      0.00000000	     21.04427708	      5.21821297	    -22.06260678	     39.75402246	    -29.92480548	      3.59295966	     47.76652075	     81.19817280	    -11.37739419	     15.44668733	     48.02436463	    -21.56934845	     30.90752284	     56.23699888	     64.87600857	     -5.04646310	     10.15132316
      5.85000000	     -1.90709067	    -11.15526380	     72.21760217	      0.27870045	      0.79369566	      0.79210091	     15.12134822	      4.60570888	     20.53951432	     27.03496613	      0.47184917	     30.52083872	     -8.49962511	      0.00000000	      4.76250112	      0.30251710	    -32.95409752	     12.05064064	      0.21032336	     38.12272034	     12.88020011	      0.00000000	      0.03952394	     -0.45604456	      0.36108701	      0.07339990	     -0.60653927	      0.38365495	      0.06493388	     -1.10882675	      0.38365495	      0.04517191	     -1.10882675	      0.31595114	      0.03670193	     -0.92996607	      0.29338320	      0.02258398	     -0.70641303	      0.27081526	      0.28231553	     -5.15886729	      2.00825764	      0.00000000	      0.00000000	     20.65544545	      5.55606247	    -20.97550656	     35.74007231	    -29.28996763	      3.14067993	     54.37233652	     80.63735631	    -10.86683867	     13.45809356	     45.26900651	    -22.42784262	     30.85283542	     61.32882371	     64.68820233	     -4.50279284	     10.05629674
